<?xml version="1.0" encoding="utf-8"?>
<!-- Generator: Adobe Illustrator 22.1.0, SVG Export Plug-In . SVG Version: 6.00 Build 0)  -->
<svg version="1.1" id="Capa_1" xmlns="http://www.w3.org/2000/svg" xmlns:xlink="http://www.w3.org/1999/xlink" x="0px" y="0px"
	 viewBox="0 0 512 512" style="enable-background:new 0 0 512 512;" xml:space="preserve">
<style type="text/css">
	.st0{fill:#FFFFFF;}
</style>
<g>
	<circle class="st0" cx="436" cy="316" r="45"/>
	<path class="st0" d="M436,361c-41.4,0-75,33.6-75,75c0,8.3,6.7,15,15,15h121c8.3,0,15-6.7,15-15C512,394.6,477.4,361,436,361z"/>
	<circle class="st0" cx="76" cy="106" r="45"/>
	<path class="st0" d="M0,226c0,8.3,6.7,15,15,15h121c8.3,0,15-6.7,15-15c0-41.4-33.6-75-75-75S0,184.6,0,226z"/>
	<path class="st0" d="M371.6,353.7C365,342.6,361,329.8,361,316c0-5.1,0.5-10.2,1.5-15H136c-8.3,0-15,6.7-15,15v120
		c0,8.3,6.7,15,15,15h197.8c-1.7-4.7-2.8-9.7-2.8-15C331,402.5,347.1,373,371.6,353.7L371.6,353.7z M166,391c-8.3,0-15-6.7-15-15
		s6.7-15,15-15c8.3,0,15,6.7,15,15S174.3,391,166,391z M226,391c-8.3,0-15-6.7-15-15s6.7-15,15-15c8.3,0,15,6.7,15,15
		S234.3,391,226,391z M286,391c-8.3,0-15-6.7-15-15s6.7-15,15-15c8.3,0,15,6.7,15,15S294.3,391,286,391z"/>
	<path class="st0" d="M391,226V106c0-8.3-6.7-15-15-15H149.5c1,4.8,1.5,9.9,1.5,15c0,13.8-4,26.6-10.6,37.7
		C164.9,163,181,192.5,181,226c0,5.3-1.1,10.3-2.8,15H376C384.3,241,391,234.3,391,226z M226,181c-8.3,0-15-6.7-15-15s6.7-15,15-15
		c8.3,0,15,6.7,15,15S234.3,181,226,181z M286,181c-8.3,0-15-6.7-15-15s6.7-15,15-15c8.3,0,15,6.7,15,15S294.3,181,286,181z
		 M346,181c-8.3,0-15-6.7-15-15s6.7-15,15-15c8.3,0,15,6.7,15,15S354.3,181,346,181z"/>
</g>
</svg>
