<?xml version="1.0" encoding="utf-8"?>
<!-- Generator: Adobe Illustrator 22.1.0, SVG Export Plug-In . SVG Version: 6.00 Build 0)  -->
<svg version="1.1" id="Capa_1" xmlns="http://www.w3.org/2000/svg" xmlns:xlink="http://www.w3.org/1999/xlink" x="0px" y="0px"
	 viewBox="0 0 512 512" style="enable-background:new 0 0 512 512;" xml:space="preserve">
<style type="text/css">
	.st0{fill:#FFFFFF;}
</style>
<g>
	<path class="st0" d="M451,106c0-8.3-6.7-15-15-15h-45v315c0,24.8-20.2,45-45,45H151v46c0,8.3,6.7,15,15,15h270c8.3,0,15-6.7,15-15
		V106z"/>
	<circle class="st0" cx="271" cy="331" r="15"/>
	<path class="st0" d="M361,406V15c0-8.3-6.7-15-15-15H76c-8.3,0-15,6.7-15,15v391c0,8.3,6.7,15,15,15h270
		C354.3,421,361,414.3,361,406z M181,316h-60c-8.3,0-15-6.7-15-15c0-8.3,6.7-15,15-15h60c8.3,0,15,6.7,15,15
		C196,309.3,189.3,316,181,316z M271,376c-24.8,0-45-20.2-45-45s20.2-45,45-45c24.8,0,45,20.2,45,45S295.8,376,271,376z M301,256
		H121c-8.3,0-15-6.7-15-15c0-8.3,6.7-15,15-15h180c8.3,0,15,6.7,15,15C316,249.3,309.3,256,301,256z M301,196H121
		c-8.3,0-15-6.7-15-15c0-8.3,6.7-15,15-15h180c8.3,0,15,6.7,15,15C316,189.3,309.3,196,301,196z M166,121c0-8.3,6.7-15,15-15h60
		c8.3,0,15,6.7,15,15c0,8.3-6.7,15-15,15h-60C172.7,136,166,129.3,166,121z M301,76H121c-8.3,0-15-6.7-15-15s6.7-15,15-15h180
		c8.3,0,15,6.7,15,15S309.3,76,301,76z"/>
</g>
</svg>
