<?xml version="1.0" encoding="utf-8"?>
<!-- Generator: Adobe Illustrator 22.1.0, SVG Export Plug-In . SVG Version: 6.00 Build 0)  -->
<svg version="1.1" id="Capa_1" xmlns="http://www.w3.org/2000/svg" xmlns:xlink="http://www.w3.org/1999/xlink" x="0px" y="0px"
	 viewBox="0 0 512 512" style="enable-background:new 0 0 512 512;" xml:space="preserve">
<style type="text/css">
	.st0{fill:#1D5EF4;}
</style>
<g>
	<g>
		<path class="st0" d="M249.7,273c-4.3-5-7.4-10.9-12.7-14.9c-8.7-6.6-18.2-7.8-28.1-3.1c-7.8,3.7-15.5,7.9-23.2,11.9
			c-1.1,0.6-2.1,0.6-3.3,0.2c-9.5-3.3-19.1-6.6-28.6-9.8c-1.1-0.4-1.6-0.8-1.7-2c-1.6-13.5-3.3-27.1-4.9-40.6
			c-0.1-1.1,0.2-1.6,1.1-2.2c10.9-7,21.8-14,32.8-20.9c0.6-0.4,1.8-0.5,2.5-0.2c13,5,26,10,39,15c1.5,0.6,2.3,1.3,2.8,3
			c3,11.5,6.1,22.9,9.4,34.3c3,10.4,15.3,15.2,24.4,9.6c6.3-3.9,9.3-11.4,7.3-18.8c-3.9-14.3-7.7-28.6-11.7-42.8
			c-0.7-2.4-1.8-4.7-3-6.8c-1.7-2.9-4.3-4.9-7.2-6.6c-8.4-4.9-16.8-9.8-25.2-14.7c-0.6-0.3-1.2-0.7-2.1-1.2c0.9-0.4,1.5-0.7,2.2-1
			c9.2-3.7,18.4-7.5,27.5-11.1c0.9-0.4,1.9-0.5,2.8-0.5c18.2-0.1,36.4-0.1,54.7-0.2c6,0,10.9-2.5,14.1-7.5
			c3.5-5.3,3.8-11.1,0.7-16.7c-3.1-5.8-8.2-8.8-14.8-8.8c-14.5,0-29,0-43.5,0c-5.9,0-11.9,0-17.8,0c-0.9,0-2,0.2-2.8,0.5
			c-10.7,4.3-21.3,8.7-31.9,13.1c-0.6,0.3-1.2,0.5-2,0.5c0.8-0.7,1.5-1.5,2.3-2.2c7.7-7,15.4-13.9,23.2-20.8
			c0.8-0.7,1.7-1.2,2.6-1.6c16.5-6.1,33.1-12.1,49.6-18.1c10.7-3.9,14.7-15.9,8.3-25.2c-4.1-6.1-12-8.6-19.4-5.9
			c-9,3.2-17.9,6.5-26.9,9.8c-10.2,3.7-20.3,7.4-30.5,11.2c-0.9,0.3-1.7,0.9-2.4,1.6c-13.5,12.8-27,25.5-40.5,38.4
			c-1.5,1.4-3.1,2.5-5.1,3c-1.8,0.4-3.5,1-5.8,1.7c0.6-1,0.9-1.6,1.3-2.2c12.2-21,24.4-42,36.6-63c4.8-8.3,2.3-18.3-5.8-23
			c-7.8-4.5-17.8-2-22.5,6c-5.4,9-10.6,18.2-15.9,27.3c-11.6,20-23.3,40-34.9,59.9c-0.5,0.8-1.5,1.5-2.3,1.7
			c-16.9,4.5-33.8,9-50.7,13.4c-1.3,0.3-50.7,0.9-51.4,2.1L7.4,243c-0.5,0.8-1,1.7-1.6,2.7c2.1,0.5,4,1,5.9,1.5
			c15.5,3.8,31,7.5,46.5,11.4c18.5,4.8,34.7,13.7,47.7,28c3.9,4.3,7.5,8.9,11.1,13.4c6,7.5,13.8,11.4,23.4,11.3
			c16,0,32-0.1,48.1-0.2c0.7,0,1.5-0.2,2.1-0.5c19.5-12.3,38.9-24.6,58.4-37C249.1,273.5,249.3,273.3,249.7,273z"/>
		<path class="st0" d="M261.1,259.7c4.3,5,7.4,10.9,12.7,14.9c8.7,6.6,18.2,7.8,28.1,3.1c7.8-3.7,15.5-7.9,23.2-11.9
			c1.1-0.6,2.1-0.6,3.3-0.2c9.5,3.3,19.1,6.6,28.6,9.8c1.1,0.4,1.6,0.8,1.7,2c1.6,13.5,3.3,27.1,4.9,40.6c0.1,1.1-0.2,1.6-1.1,2.2
			c-10.9,7-21.8,14-32.8,20.9c-0.6,0.4-1.8,0.5-2.5,0.2c-13-5-26-10-39-15c-1.5-0.6-2.3-1.3-2.8-3c-3-11.5-6.1-22.9-9.4-34.3
			c-3-10.4-15.3-15.2-24.4-9.6c-6.3,3.9-9.3,11.4-7.3,18.8c3.9,14.3,7.7,28.6,11.7,42.8c0.7,2.4,1.8,4.7,3,6.8
			c1.7,2.9,4.3,4.9,7.2,6.6c8.4,4.9,16.8,9.8,25.2,14.7c0.6,0.3,1.2,0.7,2.1,1.2c-0.9,0.4-1.5,0.7-2.2,1
			c-9.2,3.7-18.4,7.5-27.5,11.1c-0.9,0.4-1.9,0.5-2.8,0.5c-18.2,0.1-36.4,0.1-54.7,0.2c-6,0-10.9,2.5-14.1,7.5
			c-3.5,5.3-3.8,11.1-0.7,16.7c3.1,5.8,8.2,8.8,14.8,8.8c14.5,0,29,0,43.5,0c5.9,0,11.9,0,17.8,0c0.9,0,2-0.2,2.8-0.5
			c10.7-4.3,21.3-8.7,31.9-13.1c0.6-0.3,1.2-0.5,2-0.5c-0.8,0.7-1.5,1.5-2.3,2.2c-7.7,7-15.4,13.9-23.2,20.8
			c-0.8,0.7-1.7,1.2-2.6,1.6c-16.5,6.1-33.1,12.1-49.6,18.1c-10.7,3.9-14.7,15.9-8.3,25.2c4.1,6.1,12,8.6,19.4,5.9
			c9-3.2,17.9-6.5,26.9-9.8c10.2-3.7,20.3-7.4,30.5-11.2c0.9-0.3,1.7-0.9,2.4-1.6c13.5-12.8,27-25.5,40.5-38.4
			c1.5-1.4,3.1-2.5,5.1-3c1.8-0.4,3.5-1,5.8-1.7c-0.6,1-0.9,1.6-1.3,2.2c-12.2,21-24.4,42-36.6,63c-4.8,8.3-2.3,18.3,5.8,23
			c7.8,4.5,17.8,2,22.5-6c5.4-9,10.6-18.2,15.9-27.3c11.6-20,23.3-40,34.9-59.9c0.5-0.8,1.5-1.5,2.3-1.7c16.9-4.5,33.8-9,50.7-13.4
			c1.3-0.3,50.7-0.9,51.4-2.1l8.7-98.5c0.5-0.8,1-1.7,1.6-2.7c-2.1-0.5-4-1-5.9-1.5c-15.5-3.8-31-7.5-46.5-11.4
			c-18.5-4.8-34.7-13.7-47.7-28c-3.9-4.3-7.5-8.9-11.1-13.4c-6-7.5-13.8-11.4-23.4-11.3c-16,0-32,0.1-48.1,0.2
			c-0.7,0-1.5,0.2-2.1,0.5c-19.5,12.3-38.9,24.6-58.4,37C261.7,259.2,261.5,259.4,261.1,259.7z"/>
	</g>
</g>
</svg>
