<?xml version="1.0" encoding="utf-8"?>
<!-- Generator: Adobe Illustrator 22.1.0, SVG Export Plug-In . SVG Version: 6.00 Build 0)  -->
<svg version="1.1" id="Capa_1" xmlns="http://www.w3.org/2000/svg" xmlns:xlink="http://www.w3.org/1999/xlink" x="0px" y="0px"
	 viewBox="0 0 512 512" style="enable-background:new 0 0 512 512;" xml:space="preserve">
<style type="text/css">
	.st0{fill:#66A1FC;}
</style>
<g>
	<path class="st0" d="M467.1,463.5c12.7,0,23.4-0.8,33.9,0.4c3.9,0.4,7.3,5.3,11,8.1c-3.5,2.5-6.7,5.6-10.5,7.3
		c-2.6,1.1-6.1,0.2-9.2,0.2c-157.6,0-315.3,0-472.9,0c-3.6,0-7.5,1-10.5-0.3c-3.4-1.5-5.9-5-8.8-7.7c2.9-2.7,5.6-7.4,8.7-7.7
		c11.4-0.9,22.9-0.4,36.2-0.4c0-5.8,0-10.5,0-15.3c0-40,0.3-79.9-0.2-119.9c-0.1-8.8,2.8-13.5,10.3-17.8
		c27.9-16.3,55.3-33.3,85.1-51.3c0,69,0,135.7,0,203.3c6.1,0,10.7,0,16.8,0c0-5.5,0-10.7,0-15.9c0-94.1,0.1-188.3-0.2-282.4
		c0-8.9,2.4-14.6,9.9-19.7c26.8-18.3,53.3-36.9,79.3-56.2c7.9-5.9,13.1-5.2,20.6,0.4c25.7,18.9,51.8,37.4,78.2,55.5
		c7.8,5.3,10.8,11.1,10.7,20.6c-0.4,93.7-0.2,187.4-0.2,281.1c0,5.3,0,10.5,0,16.7c5.6,0,10.1,0,16.2,0c0-67,0-133.8,0-203.5
		c10.1,6,17.9,10.6,25.7,15.3c19.7,11.9,39.2,24.4,59.3,35.7c8.6,4.8,11.1,10.6,11,20.1c-0.5,39.1-0.2,78.2-0.2,117.2
		C467.1,452.2,467.1,457,467.1,463.5z M292.8,410.8c0-11.5,0-21.3,0-31c0-8.1-3.7-12.3-12.2-12.2c-16.4,0.2-32.9-0.7-49.2,0.5
		c-4.3,0.3-11.5,6.6-11.6,10.4c-1,27.8-0.5,55.7-0.5,84.3c25,0,48.6,0,73.5,0c0-8.2,0.1-15.6,0-23.1c-0.1-3.5-0.5-6.9-0.8-11.1
		c-5.9-0.3-11.4,0.4-16.2-1.2c-3.3-1.1-5.6-5.5-8.4-8.4c2.8-2.4,5.2-5.9,8.4-6.8C280.8,410.8,286.3,411.2,292.8,410.8z M325.5,202.4
		c-0.2-28.9,3.6-26.4-26.3-26.4c-30.2,0-27.1-2.8-27.1,27.1c0,29.7-2.9,26.2,26.4,26.2C329.3,229.2,325.1,232.9,325.5,202.4z
		 M325.5,284.8c-0.4-30.4,3.9-26.8-26.9-26.8c-29.5,0-26.4-3.5-26.4,26.1c0,29.5-3.3,27.2,27,27.2
		C329.3,311.2,325.2,313.2,325.5,284.8z M217.2,229.3c28.4-0.4,26.6,4.4,26.6-26c0-30.9,2.4-27.3-26.8-27.3
		c-27.9,0-26.8-3.8-26.7,26.2C190.4,233.8,188.5,228.9,217.2,229.3z M243.9,285.2c-0.2-31.9,2.7-27.2-27.9-27.2
		c-26.9-0.1-25.6-4.4-25.6,25.6c0,31.4-2.1,27.5,27.9,27.6C245.9,311.3,243.8,313.7,243.9,285.2z M95.8,391.6
		c26.9-0.2,24.1,3.1,24.2-24.2c0-3.1-0.3-6.3,0.1-9.3c1.2-10.2-3.7-13.1-13.2-12.8c-39.5,1.2-32.9-7.2-33.7,35
		c-0.2,8.6,3.3,12.3,11.9,11.4C88.7,391.3,92.3,391.6,95.8,391.6z M415,391.6c2.6,0,5.3-0.3,7.9,0.1c11.9,1.7,16.5-2.7,16.1-15.2
		c-1.1-36.7,4.3-30.4-30.6-31.1c-1.8,0-3.5,0.1-5.3,0c-8.8-0.7-11.9,3.6-11.2,11.9c0.3,3.9,0.1,7.9,0.1,11.9
		C392,394.3,390.2,391.5,415,391.6z"/>
	<path class="st0" d="M375,143.6c-5.9-3.2-10.4-5-14.2-7.7c-30.9-21.7-61.9-43.2-92.2-65.7c-9.7-7.2-16.3-6.5-25.6,0.4
		c-30.4,22.3-61.5,43.7-92.2,65.7c-8.1,5.8-16.4,9.3-23.1-0.2c-6.8-9.5-0.6-16.3,7.4-22c36.3-25.6,72.5-51.2,108.6-77.1
		c7.8-5.6,14.6-7.2,22.9-1.2c37.2,26.6,74.7,52.7,111.5,79.8c4.6,3.4,7.1,11.5,7.5,17.6C385.8,136.4,379,139.9,375,143.6z"/>
	<path class="st0" d="M139.2,208.7c6,22.1-0.9,35.3-20.9,45.5c-28,14.2-54.1,32-80.9,48.3c-8.4,5.1-16.2,5.9-21.6-3.6
		c-5.2-9.1,0.2-15,7.6-19.6c36.9-22.8,73.8-45.7,110.7-68.5C135.5,210,137.2,209.5,139.2,208.7z"/>
	<path class="st0" d="M372.2,212.2c17.9,10.4,34.3,19.8,50.7,29.3c21.5,12.4,43,24.9,64.5,37.3c8,4.6,14.4,10.4,8.9,20.2
		c-5.8,10.3-14,8.3-22.7,2.9c-27.6-16.9-55.4-33.5-83.1-50.3C370.2,239.3,370.2,239.2,372.2,212.2z"/>
	<path class="st0" d="M95.8,391.6c-3.6,0-7.1-0.3-10.7,0.1c-8.6,0.9-12.1-2.8-11.9-11.4c0.8-42.2-5.8-33.8,33.7-35
		c9.5-0.3,14.4,2.6,13.2,12.8c-0.4,3.1,0,6.2-0.1,9.3C119.9,394.7,122.7,391.4,95.8,391.6z"/>
	<path class="st0" d="M415,391.6c-24.9-0.1-23,2.7-23-22.5c0-4,0.3-8-0.1-11.9c-0.7-8.3,2.4-12.6,11.2-11.9c1.8,0.1,3.5,0,5.3,0
		c34.9,0.7,29.5-5.6,30.6,31.1c0.4,12.5-4.2,17-16.1,15.2C420.4,391.3,417.7,391.6,415,391.6z"/>
</g>
</svg>
