<?xml version="1.0" encoding="utf-8"?>
<!-- Generator: Adobe Illustrator 22.1.0, SVG Export Plug-In . SVG Version: 6.00 Build 0)  -->
<svg version="1.1" id="Capa_1" xmlns="http://www.w3.org/2000/svg" xmlns:xlink="http://www.w3.org/1999/xlink" x="0px" y="0px"
	 viewBox="0 0 512 512" style="enable-background:new 0 0 512 512;" xml:space="preserve">
<style type="text/css">
	.st0{fill:#AE6FFC;}
</style>
<g>
	<g>
		<g>
			<path class="st0" d="M204.7,8.7c-13.2,0-25.3,4.2-36,12.4c-10.2,7.9-17,18-21.1,25.3c-4-7.3-10.8-17.4-21.1-25.3
				c-10.7-8.3-22.8-12.4-36-12.4C53.8,8.7,26,38.8,26,78.8c0,43.2,34.7,72.8,87.2,117.5c8.9,7.6,19,16.2,29.5,25.4
				c1.4,1.2,3.2,1.9,5,1.9c1.8,0,3.6-0.7,5-1.9c10.5-9.2,20.6-17.8,29.5-25.4c52.5-44.7,87.2-74.3,87.2-117.5
				C269.4,38.8,241.6,8.7,204.7,8.7z"/>
		</g>
	</g>
</g>
<g>
	<g>
		<path class="st0" d="M172.6,357c13.8,13.8,13.8,36.1,0,49.8c-13.8,13.8-36.1,13.8-49.8,0c-13.8-13.8-13.8-36.1,0-49.8
			S158.8,343.2,172.6,357"/>
		<path class="st0" d="M253.4,285H229l-17.6-35.2H83.9L66.3,285l-24.3,0c-19.4,0-35.2,15.8-35.2,35.2L6.8,461.1
			c0,19.4,15.8,35.2,35.2,35.2h211.4c19.4,0,35.2-15.8,35.2-35.2V320.2C288.6,300.8,272.8,285,253.4,285z M147.7,452.3
			c-38.8,0-70.5-31.6-70.5-70.5s31.6-70.5,70.5-70.5s70.5,31.6,70.5,70.5S186.5,452.3,147.7,452.3L147.7,452.3z"/>
	</g>
</g>
<path class="st0" d="M460.9,13.3c-1.7-1.4-4-1.9-6.3-1.5L320.3,41.7c-3.4,0.8-5.9,3.8-5.9,7.3V167c-6.3-3.8-14-6.1-22.4-6.1
	c-20.6,0-37.3,13.4-37.3,29.9s16.7,29.9,37.3,29.9c20.6,0,37.3-13.4,37.3-29.9v-91l119.4-26.5v64c-6.3-3.8-14-6.1-22.4-6.1
	c-20.6,0-37.3,13.4-37.3,29.9s16.7,29.9,37.3,29.9c20.6,0,37.3-13.4,37.3-29.9V19.1C463.7,16.8,462.7,14.7,460.9,13.3z"/>
<g>
	<g>
		<g>
			<polygon class="st0" points="498.1,316.2 413.4,316.2 458.4,238 356.6,238 311.6,366.6 383.9,366.6 351.9,485.2 			"/>
		</g>
	</g>
</g>
</svg>
