<?xml version="1.0" encoding="utf-8"?>
<!-- Generator: Adobe Illustrator 22.1.0, SVG Export Plug-In . SVG Version: 6.00 Build 0)  -->
<svg version="1.1" id="Capa_1" xmlns="http://www.w3.org/2000/svg" xmlns:xlink="http://www.w3.org/1999/xlink" x="0px" y="0px"
	 viewBox="0 0 512 512" style="enable-background:new 0 0 512 512;" xml:space="preserve">
<style type="text/css">
	.st0{fill:#8E70FC;}
</style>
<g>
	<g>
		<path class="st0" d="M312.9,97.8c2.7,3.6,5.6,6.9,8,10.6c11.8,17.9,22.5,36.3,30,56.5c4,10.9,7.1,22.1,8.7,33.7
			c0.2,1.5,0,2.5-1.3,3.5c-25.8,19.1-48.5,41.6-69.5,65.9c-24.5,28.5-46,59-63.3,92.4c-14.6,28.4-26.1,57.9-33,89.2
			c-0.4,1.9-0.9,3.9-1.1,5.8c-0.2,1.9-1,2.8-3,3c-27.9,3.1-54.9,0.9-80.2-12.7c-2.5-1.3-3.4-2.8-3.1-5.6c1.4-16.8,4.6-33.3,9-49.6
			c2.2-8.1,4.6-16.2,7.3-24.2c12.5-37.5,30-72.7,50.9-106.2c20.1-32.1,42-63,66.2-92.1c17.8-21.5,36.7-41.9,58.6-59.3
			c4-3.2,8.4-6.1,12.6-9.1C310.5,99.1,311.5,98.6,312.9,97.8z"/>
		<path class="st0" d="M85.7,434.3c-3-2.2-5.8-4-8.5-6c-9.5-7-16.2-16.3-22.4-26.1c-2.4-3.8-4.6-7.7-7.3-11.3
			c-4-5.4-5.4-11.5-6-18.1c-3.5-40.2,0.2-79.7,11.6-118.5c12.6-43,35-80.4,65.2-113.3c28.2-30.7,60.9-55.5,98.2-73.9
			c10.1-5,20.7-8.9,31.2-13.2c1.4-0.6,3.6-0.7,4.9-0.1c6.9,3.3,13.9,6.5,20.4,10.4c10.1,6.2,19,14,27.3,22.6
			c-3.4,2.6-6.8,5.1-10.1,7.8c-18.1,14.6-34.6,30.9-50.2,48.1c-32.3,35.8-61,74.4-86.3,115.4c-20.8,33.6-38,69-50.8,106.4
			c-1.3,3.8-1.8,7.8-3.3,11.5c-5,12.7-7.9,25.9-10.6,39.2C87.7,421.4,86.8,427.5,85.7,434.3z"/>
		<path class="st0" d="M478.8,361.6c-4.4,8-8.5,15.8-12.9,23.4c-8.3,14.4-17.3,28.2-28.9,40.2c-10.3,10.7-21.5,20.2-34.8,26.9
			c-1.1,0.6-2.7,0.8-3.9,0.6c-30.9-5.4-61-14.1-89.7-26.8c-26-11.5-48.9-27.6-68.1-48.7c-1.4-1.5-1.5-2.7-0.8-4.5
			c7.5-18.5,17.6-35.5,30.5-50.8c3.6-4.3,2.5-3.5,7.3-1.8c39.5,13.9,79.4,26.6,120.4,35.7c20.9,4.7,42.1,7.5,63.6,6.9
			C467,362.6,472.6,362,478.8,361.6z"/>
		<path class="st0" d="M505.1,262.7c-0.3,6.9-0.5,13.5-1,20.1c-1.4,17.2-5.9,33.7-11.8,49.9c-2,5.5-5.3,8.4-11,9.7
			c-13,2.8-26.2,3-39.4,2.2c-27-1.7-53.4-7.4-79.6-14.1c-21.1-5.4-41.9-11.5-61.9-20c-4.4-1.9-8.7-4.1-13.4-6.3
			c1.6-2.8,3-5.4,4.5-7.8c18.8-30.1,43.3-54.6,72.9-74c2.9-1.9,5.2-2,8.3-0.4c28.5,14.5,57.6,27.5,88.8,35c10.6,2.6,21.5,4,32.3,5.7
			C497.3,263.1,500.9,262.7,505.1,262.7z"/>
		<path class="st0" d="M173.2,19.7c1.5-0.5,2.8-0.9,4-1.3c15.2-4.8,30.6-9.5,46.5-10.8c15.5-1.2,31.1-2.9,46.6,0.6
			c10.1,2.3,19.6,6,28.9,10.3c20.4,9.3,40.1,20,59,32.2c22.4,14.4,39.8,33.9,54.2,56.2c20.9,32.4,34.1,68,42.5,105.5
			c1.6,6.9,2.7,13.9,4,20.8c0.1,0.7,0.2,1.5,0.3,2.6c-1.5-0.3-2.9-0.4-4.2-0.7c-26.2-6.7-50.8-17-73.2-32.2c-1-0.7-1.6-2.1-2-3.3
			c-3.3-9.4-5.9-19.1-9.8-28.3c-10.5-25-22.8-49.2-37.1-72.1c-21.4-34.2-52.1-56.7-90.3-69.1c-21.4-6.9-43.4-10.2-66-9.8
			c-0.9,0-1.9,0-2.8,0C173.8,20.2,173.6,20,173.2,19.7z"/>
		<path class="st0" d="M21.4,344c-2.6-8.7-5.7-17.3-7.9-26.1c-12.3-50-9.3-99.4,7.4-148c14.8-42.9,40.3-78.4,75.5-107
			c13.3-10.8,27.5-20.2,43-27.6c1.1-0.5,2.4-1,3.7-1c16.7-0.2,33.5-1,50.1,1.9c10.9,1.9,21.8,4,32.8,6.7c-0.5,0.3-0.9,0.6-1.4,0.8
			c-22,8.8-42.1,21-61,35.1c-30.5,22.7-56.9,49.5-79.8,79.9c-17.4,23-30.5,48.4-40.4,75.4c-11.8,32.2-18.6,65.5-20.5,99.7
			c-0.2,3.3,0,6.7,0,10C22.4,343.9,21.9,343.9,21.4,344z"/>
		<path class="st0" d="M229.9,392.2c44.6,39.2,95.7,63.2,152.4,76.9c-2.9,1.8-6,3.8-9.2,5.6c-13.1,7.5-26.8,13.5-41.3,17.6
			c-19.4,5.5-38.6,4.7-57.9-0.6c-22.5-6.2-43.4-15.6-63.3-27.7c-1.7-1-1.7-2.3-1.6-3.9c1.3-17.2,5.9-33.6,12.5-49.4
			C224,404.6,227,398.6,229.9,392.2z"/>
		<path class="st0" d="M506,241.9c-8.9,0.6-17.6,1.3-26.1-1.4c-0.8-0.3-1.6-1.6-1.8-2.6c-2.5-11.4-4.7-22.8-7.5-34.1
			c-7-28.6-15.9-56.5-28.6-83.2c-9.9-20.8-24-38.3-40.9-53.8c-18.2-16.7-38-31.2-59.8-42.8c-0.2-0.1-0.4-0.3-1.2-1
			c1.4,0.3,2.1,0.4,2.7,0.6c39.8,12,74.1,32.7,101.4,64.3c10.6,12.2,18.8,25.9,26.2,40.2c11.8,22.9,22.1,46.4,29,71.2
			c3.6,12.9,6.3,26,6.5,39.4C506,239.9,506,240.8,506,241.9z"/>
		<path class="st0" d="M113.6,466.9c2.5,0.8,5,1.6,7.6,2.3c13.5,3.9,27.1,7.6,41.3,7.7c10.6,0.1,21.2-0.9,31.8-1.3
			c1,0,2.3,0,3.1,0.6c20.5,13.3,42.8,22.5,66.5,28.5c0.8,0.2,1.6,0.4,2.6,0.7c-7.8,2.1-57.7-2.9-79.4-8
			C161,491.2,136.5,481,113.6,466.9z"/>
	</g>
</g>
</svg>
