<?xml version="1.0" encoding="utf-8"?>
<!-- Generator: Adobe Illustrator 22.1.0, SVG Export Plug-In . SVG Version: 6.00 Build 0)  -->
<svg version="1.1" id="Capa_1" xmlns="http://www.w3.org/2000/svg" xmlns:xlink="http://www.w3.org/1999/xlink" x="0px" y="0px"
	 viewBox="0 0 512 512" style="enable-background:new 0 0 512 512;" xml:space="preserve">
<style type="text/css">
	.st0{fill:#06979D;}
</style>
<g>
	<g>
		<path class="st0" d="M249.8,15.2L14.4,126.9c-10.6,5-10.2,20.3,0.7,24.8l235,96.2c3.5,1.4,7.4,1.3,10.8-0.2l224.5-104
			c10.5-4.8,10.5-19.7,0-24.6L261.3,15.1C257.6,13.4,253.4,13.5,249.8,15.2z"/>
		<path class="st0" d="M80.9,222.9l162.5,71.3c4.2,1.9,9,1.9,13.3,0.1l173-72.1c4.1-1.7,8.7-1.7,12.8-0.1l52.3,21
			c14,5.6,14.2,25.4,0.3,31.3L256.8,375.9c-4.4,1.9-9.3,1.8-13.6-0.2L24,276.4c-12.8-5.8-13.3-23.8-0.9-30.4l43-22.6
			C70.7,221,76.1,220.8,80.9,222.9z"/>
		<path class="st0" d="M80.9,343.8l162.5,71.3c4.2,1.9,9,1.9,13.3,0.1l173-72.1c4.1-1.7,8.7-1.7,12.8-0.1l52.3,21
			c14,5.6,14.2,25.4,0.3,31.3L256.8,496.8c-4.4,1.9-9.3,1.8-13.6-0.2L24,397.3c-12.8-5.8-13.3-23.8-0.9-30.4l43-22.6
			C70.7,341.9,76.1,341.7,80.9,343.8z"/>
	</g>
</g>
</svg>
