<?xml version="1.0" encoding="utf-8"?>
<!-- Generator: Adobe Illustrator 22.1.0, SVG Export Plug-In . SVG Version: 6.00 Build 0)  -->
<svg version="1.1" id="Capa_1" xmlns="http://www.w3.org/2000/svg" xmlns:xlink="http://www.w3.org/1999/xlink" x="0px" y="0px"
	 viewBox="0 0 512 512" style="enable-background:new 0 0 512 512;" xml:space="preserve">
<style type="text/css">
	.st0{fill:#FB795C;}
</style>
<g>
	<g>
		<path class="st0" d="M0,442.8c0-4.1,0-7.5,0-11.3c100.7,0,201.3,0,303,0c-7-7.9-5-15.6-2.4-23.7c6.5-20.2,12.4-40.7,18.8-60.9
			c1.1-3.4,0.4-5.3-2.3-7.6c-25.1-21.7-50-43.4-74.9-65.2c-17.7-15.5-19.3-37.2-4-55.3c17.5-20.7,35.2-41.3,52.8-61.9
			c0.6-0.7,1.2-1.5,2.2-2.8c-10.5-3.6-20.6-7.1-31.2-10.8c-1.7,4.2-3.2,7.9-4.6,11.7c-5.4,13.8-10.6,27.6-16.1,41.4
			c-4.3,10.9-14,14.4-24.6,9.4c-1.6-0.7-3.9-0.6-5.6,0C143.8,228,76.6,250.5,9.4,273c-1.9,0.6-3.9,1.2-6.3,2
			c-0.8-2.4-1.6-4.5-2.6-7.2c69.8-23.3,139.3-46.5,209.3-70c-2.5-6.6-0.2-12.4,2.1-18.3c7.5-19,15-38.1,22.5-57.1
			c0.9-2.2,1.8-4.4,3-6.4c4.7-8.5,13-12.1,22.5-9.3c27,7.9,54.1,15.9,81.1,24c1.5,0.5,2.8,1.8,4.1,2.9c3.8,3,7.2,6.8,11.5,9
			c4.5,2.3,7.2,5.5,9.6,9.7c7.2,13.1,14.7,26.1,22.2,39.1c0.8,1.3,1.6,2.6,2.7,4.4c4.7-4.6,9.2-9,13.7-13.4
			c8.6-8.4,17.1-16.8,25.8-25.1c4.8-4.6,10.7-6.1,17.1-3.9c6.2,2.1,9.8,6.7,10.9,13.1c0.9,5.5-0.7,10.8-5.1,14
			c-10.7,7.9-15.6,19-19.8,31.1c-25,71.6-50.5,143.1-75.8,214.6c-0.5,1.5-0.9,3-1.6,5.2c2,0,3.6,0,5.3,0c42.3,0,84.5,0,126.8,0
			c9.1,0,11.4-2.4,11.4-11.5c0-1.7,0-3.4,0-5.3c4.2,0,7.9,0,12.2,0c0.8,8.4,0.2,16.5-5.6,23.4c-3,3.6-7.1,4.9-11.8,4.8
			c-42.3-0.1-84.5,0-126.8,0c-120.5,0-241,0-361.5,0C4.1,442.8,2.3,442.8,0,442.8z M300.2,255.2c1.5,1.6,2.5,2.8,3.6,4
			c17.3,18.6,34.4,37.4,51.9,55.7c8.8,9.3,10.6,19.6,7,31.4c-8.7,28.4-17.3,56.7-26.1,85.3c1.6,0,3.3-0.3,4.8,0
			c5.1,1.1,6.9-1.6,8.5-6.1c25-70.9,50.1-141.8,75.2-212.7c0.5-1.5,1.1-3,1.6-4.5c-0.3-0.2-0.7-0.4-1-0.6c-1.1,1.3-2.2,2.7-3.3,4
			c-7.3,7.6-14.4,15.5-22,22.8c-8.7,8.5-18.4,7.2-24.9-3c-7.2-11.1-14.3-22.3-21.5-33.4c-0.7-1.1-1.6-2.1-2.5-3.4
			C334.2,214.9,317.3,234.9,300.2,255.2z"/>
		<path class="st0" d="M254.9,300.4c-13.2,22.5-26.2,44.8-39.2,67.1c-0.8,1.4-2.2,2.7-3.5,3.8c-21.1,17.8-42.2,35.6-63.3,53.3
			c-9.9,8.3-22.2,7.6-29.8-1.5c-7.7-9.2-6-21.9,3.7-30.1c18.3-15.5,36.5-31,54.6-46.7c1.7-1.5,3.1-3.6,4.1-5.6
			c11.7-25.5,23.3-51,34.9-76.4c0.7-1.5,1.5-3.1,2.6-5.3C224.6,278.5,242,286.9,254.9,300.4z"/>
		<path class="st0" d="M378.2,137.2c-18.6-0.1-33.8-15.6-33.6-34.3c0.2-18.6,15.3-33.8,33.7-33.8c18.5,0,33.9,15.5,33.9,34.2
			C412.2,122.1,396.9,137.3,378.2,137.2z"/>
	</g>
</g>
</svg>
