<?xml version="1.0" encoding="utf-8"?>
<!-- Generator: Adobe Illustrator 22.1.0, SVG Export Plug-In . SVG Version: 6.00 Build 0)  -->
<svg version="1.1" id="Capa_1" xmlns="http://www.w3.org/2000/svg" xmlns:xlink="http://www.w3.org/1999/xlink" x="0px" y="0px"
	 viewBox="0 0 477.9 477.9" style="enable-background:new 0 0 477.9 477.9;" xml:space="preserve">
<style type="text/css">
	.st0{fill:#118DED;}
</style>
<g>
	<g>
		<path class="st0" d="M238.9,0C107,0.2,0.2,107,0,238.9v187.7c0,28.3,22.9,51.2,51.2,51.2h68.3c9.4,0,17.1-7.6,17.1-17.1V290.1
			c0-9.4-7.6-17.1-17.1-17.1H51.2c-5.8,0.1-11.6,1.1-17.1,3.2v-37.3c0-113.1,91.7-204.8,204.8-204.8s204.8,91.7,204.8,204.8v37.3
			c-5.5-2-11.2-3.1-17.1-3.2h-68.3c-9.4,0-17.1,7.6-17.1,17.1v170.7c0,9.4,7.6,17.1,17.1,17.1h68.3c28.3,0,51.2-22.9,51.2-51.2
			V238.9C477.7,107,370.8,0.2,238.9,0z"/>
	</g>
</g>
</svg>
