<?xml version="1.0" encoding="utf-8"?>
<!-- Generator: Adobe Illustrator 22.1.0, SVG Export Plug-In . SVG Version: 6.00 Build 0)  -->
<svg version="1.1" id="Capa_1" xmlns="http://www.w3.org/2000/svg" xmlns:xlink="http://www.w3.org/1999/xlink" x="0px" y="0px"
	 viewBox="0 0 448 448" style="enable-background:new 0 0 448 448;" xml:space="preserve">
<style type="text/css">
	.st0{fill:#118DED;}
</style>
<g>
	<g>
		<path class="st0" d="M352,149.3h-21.3v-42.7C330.7,47.8,282.9,0,224,0S117.3,47.8,117.3,106.7v42.7H96
			c-23.6,0-42.7,19.1-42.7,42.7v213.3c0,23.6,19.1,42.7,42.7,42.7h256c23.6,0,42.7-19.1,42.7-42.7V192
			C394.7,168.4,375.6,149.3,352,149.3z M224,341.3c-23.6,0-42.7-19.1-42.7-42.7c0-23.6,19.1-42.7,42.7-42.7s42.7,19.1,42.7,42.7
			C266.7,322.2,247.6,341.3,224,341.3z M290.1,149.3H157.9v-42.7c0-36.5,29.7-66.1,66.1-66.1s66.1,29.7,66.1,66.1V149.3z"/>
	</g>
</g>
</svg>
